<svg width="14" height="15" viewBox="0 0 14 15" fill="none" xmlns="http://www.w3.org/2000/svg">
<path d="M6.08398 2.32928L6.69102 1.72225C6.94805 1.46522 7.36367 1.46522 7.61797 1.72225L12.9336 7.03514C13.1906 7.29218 13.1906 7.7078 12.9336 7.9621L7.61797 13.2777C7.36094 13.5348 6.94531 13.5348 6.69102 13.2777L6.08398 12.6707C5.82422 12.4109 5.82969 11.9871 6.09492 11.7328L9.38984 8.59374H1.53125C1.16758 8.59374 0.875 8.30116 0.875 7.93749V7.06249C0.875 6.69882 1.16758 6.40624 1.53125 6.40624H9.38984L6.09492 3.26718C5.82695 3.01288 5.82148 2.58905 6.08398 2.32928Z" fill="black"/>
</svg>
