<svg width="56" height="57" viewBox="0 0 56 57" fill="none" xmlns="http://www.w3.org/2000/svg">
<g clip-path="url(#clip0_1_173)">
<g clip-path="url(#clip1_1_173)">
<path d="M55.05 24.8402C54.95 23.9402 54.15 23.3402 53.25 23.4402C52.35 23.5402 51.75 24.3402 51.85 25.2402C53.35 38.5402 43.65 50.5402 30.35 52.0402C29.45 52.1402 28.55 52.1402 27.65 52.1402C20.15 52.1402 13.05 48.7402 8.35 42.8402H11.55C12.35 42.7402 12.95 42.0402 12.95 41.1402C12.95 40.3402 12.35 39.6402 11.55 39.5402H4.75C4.35 39.5402 3.85 39.6402 3.55 39.9402C3.25 40.3402 3.05 40.7402 3.05 41.2402V48.5402C3.05 48.5402 3.05 49.7402 4.65 49.7402C5.35 49.9402 6.05 49.3402 6.25 48.6402V45.2402C13.55 54.1402 25.55 57.5402 36.55 53.9402C48.75 49.8402 56.45 37.7402 55.05 24.8402ZM0.450002 30.8402C0.550002 31.7402 1.35 32.3402 2.25 32.2402C3.15 32.1402 3.75 31.3402 3.65 30.4402C2.15 17.1402 11.75 5.14019 25.05 3.74019C25.95 3.64019 26.85 3.64019 27.75 3.64019C35.25 3.64019 42.35 7.04019 47.05 12.9402H43.85C43.05 13.0402 42.45 13.7402 42.45 14.6402C42.45 15.4402 43.05 16.1402 43.85 16.2402H50.75C51.15 16.2402 51.65 16.1402 51.95 15.8402C52.25 15.4402 52.45 15.0402 52.45 14.5402V7.04019C52.45 7.04019 52.45 5.84019 50.85 5.84019C50.15 5.74019 49.45 6.34019 49.25 7.04019V10.4402C41.95 1.64019 29.95 -1.85981 19.05 1.74019C6.75 5.84019 -0.949998 17.9402 0.450002 30.8402ZM25.55 27.8402L29.35 30.6402C29.55 30.8402 29.65 31.1402 29.45 31.4402C29.35 31.5402 29.15 31.6402 29.05 31.6402H27.85C27.55 31.6402 27.25 31.4402 27.25 31.0402C27.25 30.1402 26.55 29.4402 25.65 29.4402C24.75 29.4402 24.05 30.1402 24.05 31.0402C24.05 32.7402 25.15 34.2402 26.85 34.6402V34.7402C26.85 35.6402 27.55 36.3402 28.45 36.3402C29.35 36.3402 30.05 35.6402 30.05 34.7402V34.6402C31.65 34.1402 32.85 32.6402 32.85 30.9402C32.85 29.7402 32.25 28.6402 31.35 27.9402L27.55 25.1402C27.35 24.9402 27.25 24.6402 27.45 24.3402C27.55 24.2402 27.75 24.1402 27.85 24.1402H29.05C29.35 24.1402 29.65 24.3402 29.65 24.7402C29.65 25.6402 30.35 26.3402 31.25 26.3402C32.15 26.3402 32.85 25.6402 32.85 24.7402C32.85 23.0402 31.75 21.5402 30.05 21.1402V21.0402C30.05 20.1402 29.35 19.4402 28.45 19.4402C27.55 19.4402 26.85 20.1402 26.85 21.0402V21.1402C24.85 21.7402 23.65 23.7402 24.25 25.7402C24.45 26.6402 24.85 27.3402 25.55 27.8402ZM28.45 41.6402C35.95 41.6402 42.05 35.5402 42.05 28.0402C42.05 20.5402 35.95 14.4402 28.45 14.4402C20.95 14.4402 14.85 20.5402 14.85 28.0402C14.85 35.5402 20.95 41.5402 28.45 41.6402ZM28.45 17.6402C34.15 17.6402 38.85 22.3402 38.85 28.0402C38.85 33.7402 34.15 38.3402 28.45 38.3402C22.75 38.3402 18.05 33.6402 18.05 27.9402C18.05 22.2402 22.65 17.6402 28.45 17.6402Z" fill="white"/>
</g>
</g>
<defs>
<clipPath id="clip0_1_173">
<rect width="55" height="56" fill="white" transform="translate(0.25 0.340088)"/>
</clipPath>
<clipPath id="clip1_1_173">
<rect width="55" height="56" fill="white" transform="translate(0.25 0.340088)"/>
</clipPath>
</defs>
</svg>
