<svg width="57" height="56" viewBox="0 0 57 56" fill="none" xmlns="http://www.w3.org/2000/svg">
<g clip-path="url(#clip0_1_181)">
<g clip-path="url(#clip1_1_181)">
<path d="M33.05 13.8401L36.85 16.6401C37.05 16.8401 37.15 17.1401 36.95 17.4401C36.85 17.5401 36.65 17.6401 36.55 17.6401H35.35C35.05 17.6401 34.75 17.4401 34.75 17.0401C34.75 16.1401 34.05 15.4401 33.15 15.4401C32.25 15.4401 31.55 16.1401 31.55 17.0401C31.55 18.7401 32.65 20.2401 34.35 20.6401V20.7401C34.35 21.6401 35.05 22.3401 35.95 22.3401C36.85 22.3401 37.55 21.6401 37.55 20.7401V20.6401C39.15 20.1401 40.35 18.6401 40.35 16.9401C40.35 15.7401 39.75 14.6401 38.85 13.9401L35.05 11.1401C34.85 10.9401 34.75 10.6401 34.95 10.3401C35.05 10.2401 35.25 10.1401 35.35 10.1401H36.55C36.85 10.1401 37.15 10.3401 37.15 10.7401C37.15 11.6401 37.85 12.3401 38.75 12.3401C39.65 12.3401 40.35 11.6401 40.35 10.7401C40.35 9.04009 39.25 7.54009 37.55 7.14009C37.55 6.24009 36.85 5.54009 35.95 5.54009C35.05 5.54009 34.35 6.24009 34.35 7.14009V7.24009C32.35 7.84009 31.15 9.84009 31.75 11.8401C31.85 12.6401 32.35 13.3401 33.05 13.8401ZM35.95 27.5401C43.45 27.5401 49.55 21.4401 49.55 13.9401C49.55 6.44009 43.45 0.340088 35.85 0.340088C28.35 0.340088 22.25 6.44009 22.25 13.9401C22.35 21.4401 28.35 27.5401 35.95 27.5401ZM35.95 3.54009C41.65 3.54009 46.25 8.24009 46.25 13.9401C46.25 19.6401 41.65 24.3401 35.85 24.3401C30.15 24.3401 25.45 19.6401 25.45 13.9401C25.55 8.24009 30.15 3.54009 35.95 3.54009ZM54.15 31.2401C52.45 29.0401 49.25 28.5401 46.95 30.1401L40.85 34.2401C39.95 32.6401 38.25 31.5401 36.35 31.5401H31.95C27.15 27.0401 19.55 27.2401 15.05 32.0401C14.35 32.8401 13.75 33.6401 13.25 34.5401L12.45 35.0401L12.25 34.4401C11.95 33.6401 11.05 33.1401 10.25 33.4401L1.34999 36.4401C0.549993 36.7401 0.0499934 37.6401 0.349993 38.4401L5.74999 54.1401C6.04999 54.9401 6.94999 55.4401 7.74999 55.1401L16.65 52.1401C17.45 51.8401 17.95 50.9401 17.65 50.1401V50.0401L31.75 49.6401C35.55 49.6401 39.25 48.4401 42.45 46.2401L53.05 38.6401C55.45 36.9401 55.95 33.6401 54.25 31.3401L54.15 31.2401ZM8.24999 51.6401L3.94999 39.0401L9.74999 37.0401L14.05 49.7401L8.24999 51.6401ZM51.15 36.0401L40.55 43.6401C37.95 45.4401 34.85 46.4401 31.75 46.4401L16.65 46.9401L13.65 38.2401L15.45 37.1401C15.75 36.9401 15.95 36.7401 16.05 36.4401C18.15 32.1401 23.45 30.3401 27.75 32.4401C28.65 32.9401 29.55 33.5401 30.25 34.2401C30.55 34.5401 30.95 34.7401 31.45 34.7401H36.45C37.45 34.7401 38.25 35.5401 38.25 36.5401C38.25 37.5401 37.45 38.3401 36.45 38.3401H27.35C26.45 38.3401 25.75 39.0401 25.75 39.9401C25.75 40.8401 26.45 41.5401 27.35 41.5401H36.45C38.75 41.5401 40.85 39.9401 41.35 37.6401L48.85 32.6401C49.75 32.0401 51.05 32.2401 51.65 33.1401C52.25 34.1401 52.05 35.4401 51.15 36.0401Z" fill="white"/>
</g>
</g>
<defs>
<clipPath id="clip0_1_181">
<rect width="56" height="55" fill="white" transform="translate(0.25 0.340088)"/>
</clipPath>
<clipPath id="clip1_1_181">
<rect width="56" height="55" fill="white" transform="translate(0.25 0.340088)"/>
</clipPath>
</defs>
</svg>
