<svg width="56" height="50" viewBox="0 0 56 50" fill="none" xmlns="http://www.w3.org/2000/svg">
<g clip-path="url(#clip0_1_166)">
<path d="M23.55 31.2401H6.75C5.35 31.2401 4.25 30.0401 4.25 28.6401V11.3401H47.55V18.9401C47.55 19.8401 48.35 20.6401 49.25 20.6401C50.25 20.6401 51.05 19.9401 51.05 18.9401V6.94009C51.05 3.64009 48.35 0.840088 45.05 0.840088H6.75C3.45 0.840088 0.75 3.64009 0.75 6.94009V28.6401C0.75 31.9401 3.45 34.7401 6.75 34.7401H23.65C24.65 34.7401 25.35 33.9401 25.35 32.9401C25.35 31.9401 24.55 31.2401 23.55 31.2401ZM6.75 4.34009H45.05C46.45 4.34009 47.55 5.54009 47.55 6.94009V7.84009H4.25V6.94009C4.25 5.54009 5.35 4.34009 6.75 4.34009ZM7.35 20.3401C7.35 19.3401 8.15 18.5401 9.15 18.5401H13.85C14.85 18.5401 15.65 19.2401 15.65 20.2401C15.65 21.2401 14.95 22.0401 13.95 22.0401H9.15C8.15 22.1401 7.35 21.3401 7.35 20.3401ZM7.35 26.2401C7.35 25.2401 8.15 24.4401 9.15 24.4401H18.55C19.55 24.4401 20.25 25.2401 20.25 26.2401C20.25 27.1401 19.45 27.9401 18.55 27.9401H9.15C8.15 27.9401 7.35 27.1401 7.35 26.2401ZM42.25 21.9401C34.85 21.9401 28.75 27.9401 28.75 35.4401C28.75 42.8401 34.75 48.9401 42.25 48.9401C49.75 48.8401 55.75 42.8401 55.75 35.3401C55.75 27.9401 49.75 21.9401 42.25 21.9401ZM42.25 45.9401C36.45 45.9401 31.75 41.1401 31.75 35.3401C31.75 29.5401 36.45 24.8401 42.25 24.8401C48.05 24.8401 52.85 29.5401 52.85 35.3401C52.85 41.1401 48.05 45.9401 42.25 45.9401ZM47.45 31.9401C48.05 32.5401 48.05 33.4401 47.45 34.0401L41.95 39.5401C41.65 39.8401 41.25 39.9401 40.95 39.9401C40.55 39.9401 40.15 39.8401 39.95 39.5401L37.15 36.7401C36.55 36.1401 36.55 35.2401 37.15 34.6401C37.75 34.0401 38.65 34.0401 39.25 34.6401L41.05 36.4401L45.45 32.0401C45.95 31.3401 46.85 31.3401 47.45 31.9401Z" fill="white"/>
</g>
<defs>
<clipPath id="clip0_1_166">
<rect width="55" height="49" fill="white" transform="translate(0.75 0.340088)"/>
</clipPath>
</defs>
</svg>
