<svg width="50" height="57" viewBox="0 0 50 57" fill="none" xmlns="http://www.w3.org/2000/svg">
<g clip-path="url(#clip0_1_189)">
<g clip-path="url(#clip1_1_189)">
<path d="M24.75 0.340088C11.45 0.340088 0.549988 11.1401 0.549988 24.5401V37.6401C0.549988 40.3401 2.74999 42.4401 5.34999 42.4401H7.24999C8.14999 44.9401 10.85 46.2401 13.45 45.3401C15.35 44.6401 16.65 42.8401 16.65 40.7401V27.7401C16.65 25.0401 14.45 22.9401 11.85 22.9401C9.84999 22.9401 7.94999 24.2401 7.24999 26.1401H5.34999C4.84999 26.1401 4.24999 26.2401 3.74999 26.4401V24.5401C3.54999 12.9401 12.75 3.44009 24.35 3.24009C35.95 3.04009 45.45 12.2401 45.65 23.8401V26.4401C45.15 26.2401 44.55 26.1401 44.05 26.1401H42.15C41.25 23.6401 38.55 22.3401 35.95 23.2401C34.05 23.9401 32.75 25.7401 32.75 27.8401V40.9401C32.75 43.6401 34.95 45.7401 37.55 45.7401C38.05 45.7401 38.45 45.6401 38.95 45.5401C38.35 47.5401 36.45 48.9401 34.35 48.9401H29.25C28.35 46.4401 25.55 45.1401 23.05 46.0401C20.55 46.9401 19.25 49.7401 20.15 52.2401C21.05 54.7401 23.85 56.0401 26.35 55.1401C27.75 54.6401 28.85 53.5401 29.25 52.2401H34.35C38.75 52.2401 42.45 48.6401 42.45 44.1401V42.5401H44.05C46.75 42.5401 48.85 40.3401 48.85 37.7401V24.5401C48.95 11.1401 38.05 0.340088 24.75 0.340088ZM10.25 27.7401C10.25 26.8401 11.05 26.1401 11.95 26.1401C12.85 26.1401 13.45 26.8401 13.55 27.7401V40.8401C13.55 41.7401 12.75 42.4401 11.85 42.4401C10.95 42.4401 10.35 41.7401 10.25 40.8401V27.7401ZM5.44999 29.3401H7.04999V39.2401H5.44999C4.54999 39.2401 3.84999 38.5401 3.84999 37.6401V30.9401C3.84999 30.0401 4.54999 29.3401 5.44999 29.3401ZM24.75 52.1401C23.85 52.1401 23.15 51.4401 23.15 50.5401C23.15 49.6401 23.85 48.9401 24.75 48.9401C25.65 48.9401 26.35 49.6401 26.35 50.5401C26.35 51.4401 25.65 52.1401 24.75 52.1401ZM39.25 40.8401C39.25 41.7401 38.45 42.4401 37.55 42.4401C36.65 42.4401 36.05 41.7401 35.95 40.8401V27.7401C35.95 26.8401 36.75 26.1401 37.65 26.1401C38.55 26.1401 39.15 26.8401 39.25 27.7401V40.8401ZM45.65 37.6401C45.65 38.5401 44.95 39.2401 44.05 39.2401H42.45V29.3401H44.05C44.95 29.3401 45.65 30.0401 45.65 30.9401V37.6401Z" fill="white"/>
</g>
</g>
<defs>
<clipPath id="clip0_1_189">
<rect width="49" height="56" fill="white" transform="translate(0.25 0.340088)"/>
</clipPath>
<clipPath id="clip1_1_189">
<rect width="49" height="56" fill="white" transform="translate(0.25 0.340088)"/>
</clipPath>
</defs>
</svg>
