<svg width="18" height="17" viewBox="0 0 18 17" fill="none" xmlns="http://www.w3.org/2000/svg">
<path d="M16.04 1.81333C15.9267 0.793333 15.1333 0 14.1133 0H3.12001C1.98667 0 1.19334 0.793333 1.08001 1.81333L0.17334 14.8467C0.17334 15.4133 0.286673 15.98 0.740007 16.32C1.08001 16.7733 1.53334 17 2.10001 17H15.02C15.5867 17 16.04 16.7733 16.4933 16.32C16.8333 15.8667 17.06 15.4133 17.06 14.8467L16.04 1.81333ZM15.2467 15.1867C15.2467 15.1867 15.1333 15.3 15.02 15.3H2.10001C1.98667 15.3 1.87334 15.1867 1.87334 15.1867C1.87334 15.1867 1.76001 15.0733 1.76001 14.96L2.78001 1.92667C2.78001 1.81333 2.89334 1.7 3.00667 1.7H14C14.1133 1.7 14.2267 1.81333 14.2267 1.92667L15.1333 14.96C15.2467 15.0733 15.2467 15.1867 15.2467 15.1867ZM11.3933 3.62667C10.94 3.62667 10.4867 4.08 10.4867 4.53333V6.23333C10.4867 7.36667 9.58001 8.27333 8.44667 8.27333C7.31334 8.27333 6.63334 7.36667 6.63334 6.23333V4.53333C6.63334 4.08 6.29334 3.62667 5.72667 3.62667C5.16001 3.62667 4.82001 4.08 4.82001 4.53333V6.23333C4.82001 8.27333 6.52001 9.86 8.44667 9.86C10.3733 9.86 12.0733 8.16 12.0733 6.23333V4.53333C12.3 4.08 11.8467 3.62667 11.3933 3.62667Z" fill="#131117" fill-opacity="0.7"/>
</svg>
